<svg width="37" height="37" viewBox="0 0 37 37" fill="none" xmlns="http://www.w3.org/2000/svg">
<path d="M6.16665 16.9584C6.55959 16.9588 6.93753 17.1093 7.22326 17.379C7.50898 17.6488 7.68093 18.0174 7.70395 18.4097C7.72698 18.802 7.59936 19.1882 7.34716 19.4895C7.09495 19.7909 6.73721 19.9845 6.34702 20.0309L6.16665 20.0417H4.62498C4.23204 20.0413 3.8541 19.8908 3.56837 19.6211C3.28264 19.3513 3.1107 18.9827 3.08767 18.5904C3.06465 18.1981 3.19227 17.8119 3.44447 17.5105C3.69667 17.2092 4.05442 17.0156 4.44461 16.9692L4.62498 16.9584H6.16665ZM18.5 3.08337C18.8776 3.08342 19.242 3.22206 19.5242 3.47298C19.8064 3.7239 19.9867 4.06965 20.0309 4.44467L20.0416 4.62504V6.16671C20.0412 6.55965 19.8907 6.93759 19.621 7.22332C19.3513 7.50904 18.9826 7.68099 18.5903 7.70401C18.1981 7.72704 17.8118 7.59942 17.5105 7.34722C17.2092 7.09501 17.0155 6.73727 16.9691 6.34708L16.9583 6.16671V4.62504C16.9583 4.21617 17.1207 3.82404 17.4099 3.53492C17.699 3.2458 18.0911 3.08337 18.5 3.08337ZM32.375 16.9584C32.7679 16.9588 33.1459 17.1093 33.4316 17.379C33.7173 17.6488 33.8893 18.0174 33.9123 18.4097C33.9353 18.802 33.8077 19.1882 33.5555 19.4895C33.3033 19.7909 32.9455 19.9845 32.5554 20.0309L32.375 20.0417H30.8333C30.4404 20.0413 30.0624 19.8908 29.7767 19.6211C29.491 19.3513 29.319 18.9827 29.296 18.5904C29.273 18.1981 29.4006 17.8119 29.6528 17.5105C29.905 17.2092 30.2627 17.0156 30.6529 16.9692L30.8333 16.9584H32.375ZM7.54336 7.54342C7.80882 7.27798 8.16201 7.11852 8.53668 7.09496C8.91135 7.0714 9.28173 7.18536 9.57836 7.41546L9.72327 7.54342L10.8024 8.62258C11.0789 8.90002 11.2395 9.27229 11.2514 9.6638C11.2634 10.0553 11.1259 10.4367 10.8668 10.7305C10.6078 11.0243 10.2466 11.2084 9.85667 11.2456C9.46674 11.2827 9.0773 11.1701 8.76744 10.9305L8.62252 10.8025L7.54336 9.72333C7.25434 9.43423 7.09198 9.04217 7.09198 8.63337C7.09198 8.22458 7.25434 7.83252 7.54336 7.54342ZM27.2767 7.54342C27.5541 7.26692 27.9264 7.10639 28.3179 7.09444C28.7094 7.08248 29.0908 7.22 29.3846 7.47905C29.6784 7.7381 29.8625 8.09927 29.8997 8.48919C29.9368 8.87911 29.8242 9.26855 29.5846 9.57842L29.4566 9.72333L28.3774 10.8025C28.1 11.079 27.7277 11.2395 27.3362 11.2515C26.9447 11.2634 26.5633 11.1259 26.2695 10.8669C25.9758 10.6078 25.7916 10.2466 25.7544 9.85673C25.7173 9.4668 25.83 9.07736 26.0696 8.7675L26.1975 8.62258L27.2767 7.54342ZM21.5833 27.75C21.9922 27.75 22.3843 27.9125 22.6734 28.2016C22.9626 28.4907 23.125 28.8828 23.125 29.2917C23.125 30.5183 22.6377 31.6947 21.7703 32.5621C20.903 33.4294 19.7266 33.9167 18.5 33.9167C17.2734 33.9167 16.097 33.4294 15.2296 32.5621C14.3623 31.6947 13.875 30.5183 13.875 29.2917C13.875 28.9141 14.0137 28.5496 14.2646 28.2675C14.5155 27.9853 14.8613 27.805 15.2363 27.7608L15.4166 27.75H21.5833ZM18.5 9.25004C20.4414 9.25004 22.3336 9.86089 23.9086 10.9961C25.4835 12.1312 26.6614 13.7331 27.2753 15.5749C27.8892 17.4167 27.9081 19.405 27.3292 21.2581C26.7504 23.1112 25.6031 24.7352 24.05 25.9C23.8375 26.0596 23.5874 26.1616 23.3239 26.196L23.125 26.2084H13.875C13.5414 26.2084 13.2168 26.1002 12.95 25.9C11.3968 24.7352 10.2496 23.1112 9.67073 21.2581C9.09186 19.405 9.11073 17.4167 9.72466 15.5749C10.3386 13.7331 11.5165 12.1312 13.0914 10.9961C14.6664 9.86089 16.5586 9.25004 18.5 9.25004Z" fill="#8BC34A"/>
</svg>
