<svg width="204" height="33" viewBox="0 0 204 33" fill="none" xmlns="http://www.w3.org/2000/svg">
<path d="M7.33631 25.2787C1.96865 19.911 3.89251 14.0499 3.89251 14.0499C3.89251 14.0499 9.66093 11.9727 15.1516 17.4634C18.4223 20.734 18.5959 28.7532 18.5959 28.7532C18.5959 28.7532 10.6013 28.5437 7.33631 25.2787Z" fill="#00796B"/>
<path d="M23.2418 17.4633C28.6095 12.0956 34.4706 14.0195 34.4706 14.0195C34.4706 14.0195 36.5478 19.7879 31.0571 25.2786C27.7865 28.5492 19.7673 28.7228 19.7673 28.7228C19.7673 28.7228 19.9769 20.7282 23.2418 17.4633Z" fill="#00796B"/>
<path d="M13.4116 21.3489C13.4116 21.3489 14.737 24.907 19.0225 24.907C23.308 24.907 24.6335 21.3489 24.6335 21.3489" stroke="#F5F5DC" stroke-width="1.64222" stroke-linecap="round"/>
<circle cx="19.1593" cy="7.11629" r="7.11629" fill="#00796B"/>
<path d="M49.0139 25.2485L56.6662 7.96907H59.6037L67.2314 25.2485H64.3432L59.3569 13.9922C59.2417 13.7783 59.11 13.4903 58.9619 13.1282C58.8303 12.7662 58.6822 12.3877 58.5176 11.9927C58.3695 11.5813 58.2214 11.1863 58.0733 10.8078C57.9416 10.4129 57.8264 10.0755 57.7277 9.79576L58.4189 9.77107C58.2872 10.1167 58.1473 10.4787 57.9992 10.8572C57.8676 11.2357 57.7277 11.6224 57.5796 12.0174C57.4315 12.3959 57.2834 12.7662 57.1352 13.1282C56.9871 13.4738 56.8473 13.7947 56.7156 14.0909L51.7786 25.2485H49.0139ZM52.371 21.1015L53.3831 18.5342H62.5906L63.3312 21.1015H52.371ZM76.5991 25.4954C75.5459 25.4954 74.6243 25.2568 73.8344 24.7795C73.061 24.2858 72.4521 23.5864 72.0077 22.6813C71.5799 21.7762 71.3659 20.6983 71.3659 19.4476V12.2889H73.9085V18.633C73.9085 19.5875 74.0401 20.4021 74.3034 21.0768C74.5832 21.735 74.9946 22.237 75.5377 22.5826C76.0972 22.9281 76.7966 23.1009 77.6359 23.1009C78.2119 23.1009 78.755 23.0104 79.2651 22.8294C79.7753 22.6319 80.2196 22.3604 80.5981 22.0148C80.9931 21.6692 81.2975 21.2496 81.5114 20.7559C81.7418 20.2622 81.857 19.7191 81.857 19.1267V12.2889H84.3996V25.2485H81.857V22.5332L82.3014 22.237C82.0874 22.78 81.7171 23.3067 81.1905 23.8168C80.6639 24.3105 80.0057 24.7137 79.2157 25.0264C78.4423 25.339 77.5701 25.4954 76.5991 25.4954ZM91.0499 25.2485V12.2889H93.6171V16.7322L93.0987 16.2138C93.3126 15.4404 93.6829 14.741 94.2095 14.1156C94.7526 13.4738 95.3697 12.9637 96.0609 12.5852C96.7685 12.2067 97.5009 12.0174 98.2579 12.0174C98.7186 12.0174 99.163 12.0668 99.5908 12.1655C100.035 12.2643 100.381 12.3877 100.628 12.5358L99.9611 15.2264C99.6649 15.0619 99.3111 14.9385 98.8997 14.8562C98.5047 14.7574 98.1262 14.7081 97.7642 14.7081C97.1553 14.7081 96.5957 14.815 96.0856 15.029C95.5919 15.2429 95.1558 15.5309 94.7773 15.8929C94.4152 16.255 94.1272 16.6582 93.9133 17.1025C93.7158 17.5468 93.6171 18.0158 93.6171 18.5095V25.2485H91.0499ZM110.052 25.4954C108.719 25.4954 107.534 25.2074 106.497 24.6314C105.46 24.039 104.646 23.2326 104.053 22.2123C103.477 21.192 103.189 20.04 103.189 18.7564C103.189 17.4399 103.494 16.2797 104.103 15.2758C104.711 14.2555 105.543 13.4574 106.596 12.8814C107.665 12.3054 108.883 12.0174 110.249 12.0174C111.072 12.0174 111.837 12.1244 112.545 12.3383C113.252 12.5522 113.87 12.8402 114.396 13.2023C114.923 13.5479 115.342 13.9428 115.655 14.3872C115.968 14.815 116.132 15.2511 116.149 15.6955L115.482 15.6461V12.2889H118.05V25.2485H115.482V21.8914L116.025 21.9161C115.993 22.3275 115.803 22.7471 115.458 23.175C115.129 23.5864 114.684 23.9731 114.125 24.3352C113.582 24.6808 112.956 24.9605 112.249 25.1745C111.557 25.3884 110.825 25.4954 110.052 25.4954ZM110.669 23.1503C111.64 23.1503 112.495 22.9611 113.236 22.5826C113.977 22.1876 114.553 21.661 114.964 21.0027C115.375 20.328 115.581 19.5792 115.581 18.7564C115.581 17.9171 115.375 17.1683 114.964 16.5101C114.553 15.8518 113.977 15.3334 113.236 14.9549C112.495 14.5764 111.64 14.3872 110.669 14.3872C109.714 14.3872 108.867 14.5764 108.126 14.9549C107.402 15.3334 106.826 15.8518 106.398 16.5101C105.987 17.1683 105.781 17.9171 105.781 18.7564C105.781 19.5792 105.987 20.328 106.398 21.0027C106.826 21.661 107.402 22.1876 108.126 22.5826C108.867 22.9611 109.714 23.1503 110.669 23.1503ZM141.367 25.4954C140.067 25.4954 138.858 25.2897 137.739 24.8783C136.619 24.4504 135.64 23.8415 134.801 23.0516C133.962 22.2617 133.312 21.3236 132.851 20.2375C132.39 19.1349 132.16 17.9253 132.16 16.6088C132.16 15.3581 132.407 14.1979 132.9 13.1282C133.394 12.0585 134.069 11.1287 134.924 10.3388C135.78 9.53245 136.768 8.91533 137.887 8.48745C139.006 8.04312 140.199 7.82096 141.466 7.82096C142.453 7.82096 143.408 7.96084 144.329 8.2406C145.267 8.50391 146.107 8.85773 146.847 9.30206C147.604 9.74639 148.213 10.2319 148.674 10.7585L146.995 12.832C146.452 12.3383 145.885 11.9187 145.292 11.5731C144.7 11.211 144.074 10.9395 143.416 10.7585C142.758 10.561 142.058 10.4622 141.318 10.4622C140.479 10.4622 139.672 10.6104 138.899 10.9066C138.125 11.2028 137.434 11.6224 136.825 12.1655C136.233 12.6921 135.756 13.3339 135.393 14.0909C135.048 14.8479 134.875 15.6872 134.875 16.6088C134.875 17.5962 135.048 18.4766 135.393 19.2501C135.756 20.0236 136.249 20.6818 136.875 21.2249C137.516 21.7515 138.24 22.1547 139.047 22.4345C139.87 22.7142 140.742 22.8541 141.663 22.8541C142.47 22.8541 143.202 22.7554 143.86 22.5579C144.519 22.3439 145.119 22.0724 145.662 21.7433C146.205 21.3977 146.699 21.0439 147.144 20.6818L148.452 22.8788C148.024 23.2902 147.44 23.7016 146.699 24.113C145.975 24.508 145.152 24.8371 144.231 25.1004C143.326 25.3637 142.371 25.4954 141.367 25.4954ZM158.836 25.4954C157.782 25.4954 156.861 25.2568 156.071 24.7795C155.298 24.2858 154.689 23.5864 154.244 22.6813C153.816 21.7762 153.602 20.6983 153.602 19.4476V12.2889H156.145V18.633C156.145 19.5875 156.277 20.4021 156.54 21.0768C156.82 21.735 157.231 22.237 157.774 22.5826C158.334 22.9281 159.033 23.1009 159.872 23.1009C160.448 23.1009 160.992 23.0104 161.502 22.8294C162.012 22.6319 162.456 22.3604 162.835 22.0148C163.23 21.6692 163.534 21.2496 163.748 20.7559C163.978 20.2622 164.094 19.7191 164.094 19.1267V12.2889H166.636V25.2485H164.094V22.5332L164.538 22.237C164.324 22.78 163.954 23.3067 163.427 23.8168C162.9 24.3105 162.242 24.7137 161.452 25.0264C160.679 25.339 159.807 25.4954 158.836 25.4954ZM173.286 25.2485V12.2889H175.854V16.7322L175.335 16.2138C175.549 15.4404 175.919 14.741 176.446 14.1156C176.989 13.4738 177.606 12.9637 178.297 12.5852C179.005 12.2067 179.737 12.0174 180.494 12.0174C180.955 12.0174 181.4 12.0668 181.827 12.1655C182.272 12.2643 182.617 12.3877 182.864 12.5358L182.198 15.2264C181.901 15.0619 181.548 14.9385 181.136 14.8562C180.741 14.7574 180.363 14.7081 180.001 14.7081C179.392 14.7081 178.832 14.815 178.322 15.029C177.828 15.2429 177.392 15.5309 177.014 15.8929C176.652 16.255 176.364 16.6582 176.15 17.1025C175.952 17.5468 175.854 18.0158 175.854 18.5095V25.2485H173.286ZM193.399 25.4954C191.852 25.4954 190.478 25.2156 189.277 24.6561C188.075 24.0801 187.137 23.2984 186.463 22.311C185.788 21.3072 185.451 20.1717 185.451 18.9045C185.451 17.8513 185.648 16.905 186.043 16.0657C186.438 15.21 186.989 14.4859 187.697 13.8935C188.404 13.2846 189.227 12.8155 190.165 12.4864C191.103 12.1573 192.107 11.9927 193.177 11.9927C194.148 11.9927 195.061 12.1491 195.917 12.4617C196.773 12.7744 197.521 13.2105 198.163 13.77C198.805 14.3296 199.299 14.9961 199.644 15.7695C199.99 16.5265 200.155 17.3658 200.138 18.2874L200.113 19.5216H187.598L187.03 17.4975H197.916L197.546 17.769V17.1766C197.48 16.617 197.233 16.1233 196.806 15.6955C196.378 15.2676 195.843 14.9385 195.201 14.7081C194.576 14.4612 193.901 14.3378 193.177 14.3378C192.157 14.3378 191.251 14.4941 190.462 14.8068C189.672 15.103 189.055 15.5803 188.61 16.2385C188.182 16.8803 187.968 17.7114 187.968 18.7317C187.968 19.6204 188.207 20.4021 188.684 21.0768C189.178 21.735 189.861 22.2452 190.733 22.6072C191.622 22.9693 192.634 23.1503 193.769 23.1503C194.806 23.1503 195.687 23.0104 196.411 22.7307C197.151 22.4345 197.809 22.0724 198.385 21.6445L199.57 23.5206C199.126 23.8826 198.566 24.2118 197.892 24.508C197.233 24.8042 196.509 25.0428 195.719 25.2239C194.946 25.4049 194.173 25.4954 193.399 25.4954Z" fill="#00796B"/>
</svg>
